<svg xmlns="http://www.w3.org/2000/svg" width="1240" height="1240"><path d="M608.5 147c-.34.55-4.136 1-8.437 1-5.729 0-8.151.401-9.063 1.5-.934 1.126-3.445 1.5-10.063 1.5-4.851 0-9.097.45-9.437 1-.34.55-3.94 1-8 1-4.06 0-7.66.45-8 1-.34.55-4.586 1-9.437 1-6.618 0-9.129.374-10.063 1.5-.912 1.099-3.334 1.5-9.063 1.5-4.301 0-8.097.45-8.437 1-.34.55-4.586 1-9.437 1-6.618 0-9.129.374-10.063 1.5-.899 1.083-3.278 1.5-8.563 1.5-4.026 0-7.597.45-7.937 1-.34.55-4.529 1.014-9.309 1.032-6.052.022-9.28.477-10.632 1.5-1.292.977-4.365 1.468-9.191 1.468-3.988 0-7.528.45-7.868 1-.34.55-4.641 1-9.559 1-5.294 0-8.941.408-8.941 1 0 .582-3.293 1-7.878 1-5.782 0-8.208.399-9.122 1.5-.934 1.126-3.445 1.5-10.063 1.5-4.851 0-9.097.45-9.437 1-.34.55-4.136 1-8.437 1-5.729 0-8.151.401-9.063 1.5-.935 1.127-3.451 1.5-10.122 1.5-5.252 0-8.878.408-8.878 1 0 .583-3.314 1-7.941 1-4.368 0-8.219.45-8.559 1-.34.55-4.586 1-9.437 1-6.618 0-9.129.374-10.063 1.5-.914 1.101-3.34 1.5-9.122 1.5-4.585 0-7.878.418-7.878 1 0 .596-3.793 1-9.378 1-7.115 0-9.677.362-10.622 1.5-.899 1.083-3.278 1.5-8.563 1.5-4.026 0-7.597.45-7.937 1-.34.55-4.586 1-9.437 1-6.618 0-9.129.374-10.063 1.5-.914 1.101-3.34 1.5-9.122 1.5-4.585 0-7.878.418-7.878 1 0 .596-3.833 1-9.5 1s-9.5.404-9.5 1c0 .582-3.293 1-7.878 1-5.782 0-8.208.399-9.122 1.5-.934 1.126-3.445 1.5-10.063 1.5-4.851 0-9.097.45-9.437 1-.34.55-3.999 1-8.13 1-5.345 0-7.946.433-9.013 1.5-1.109 1.109-3.825 1.5-10.428 1.5-5.286 0-8.929.408-8.929 1 0 .582-3.293 1-7.878 1-5.782 0-8.208.399-9.122 1.5-.685.825-1.865 1.5-2.622 1.5-1.131 0-1.378 4.206-1.378 23.5 0 15 .362 23.5 1 23.5.641 0 1 9.357 1 26.071 0 22.178.231 26.303 1.545 27.617 1.319 1.318 1.524 5.202 1.402 26.531-.096 16.984.209 25.337.955 26.083.744.744 1.098 9.914 1.098 28.398 0 17.533.358 27.3 1 27.3.641 0 1 9.464 1 26.393 0 22.538.219 26.477 1.5 26.969 1.28.491 1.5 4.384 1.5 26.548 0 16.236.375 26.204 1 26.59.627.387 1 10.701 1 27.63 0 22.678.241 27.254 1.5 28.513 1.256 1.256 1.5 5.714 1.5 27.428 0 16.619.359 25.929 1 25.929s1 9.357 1 26.071c0 22.256.228 26.3 1.556 27.627 1.339 1.339 1.53 5.259 1.376 28.138-.127 18.921.145 26.69.945 26.956.793.265 1.123 8.136 1.123 26.791 0 16.945.359 26.417 1 26.417s1 9.293 1 25.878c0 21.782.237 26.074 1.5 27.122 1.191.989 1.5 3.896 1.5 14.122 0 11.851.147 12.878 1.845 12.878 1.015 0 2.679.921 3.697 2.047 1.019 1.125 3.226 2.647 4.905 3.381 8.933 3.906 10.519 4.708 11.07 5.599.33.535 1.474.973 2.542.973 1.068 0 1.941.45 1.941 1s.822 1 1.826 1 2.882 1.125 4.174 2.5c1.292 1.375 3.133 2.5 4.091 2.5.958 0 1.892.337 2.076.75.34.766 9.918 5.619 13.083 6.629.963.307 1.75 1.022 1.75 1.59 0 .567.822 1.031 1.826 1.031s2.882 1.125 4.174 2.5c1.292 1.375 3.17 2.5 4.174 2.5 1.004 0 1.826.45 1.826 1s.787 1.033 1.75 1.073c.963.04 3.1.935 4.75 1.989s3.675 2.194 4.5 2.534c5.675 2.339 7.831 3.56 9.458 5.357 1.018 1.126 2.656 2.047 3.638 2.047.982 0 2.046.422 2.365.937.76 1.229 6.473 4.063 8.193 4.063.74 0 1.346.45 1.346 1s.873 1 1.941 1 2.201.422 2.52.937c.696 1.126 6.4 4.056 7.943 4.08.603.01 2.156 1.135 3.451 2.5 1.295 1.366 2.928 2.483 3.628 2.483.699 0 1.832.675 2.517 1.5.685.825 2.09 1.5 3.122 1.5 1.033 0 1.878.45 1.878 1s.606 1 1.346 1c1.72 0 7.433 2.834 8.193 4.063.319.515 1.383.937 2.365.937.982 0 2.62.921 3.638 2.047 1.019 1.125 3.226 2.647 4.905 3.381 8.933 3.906 10.519 4.708 11.07 5.599.33.535 1.474.973 2.542.973 1.068 0 1.941.45 1.941 1s.83 1 1.845 1c1.015 0 2.702.952 3.75 2.115 1.048 1.163 2.805 2.512 3.905 2.997 1.1.486 2.675 1.304 3.5 1.818.825.514 4.313 2.202 7.75 3.751 3.438 1.549 6.25 3.154 6.25 3.567 0 .414.822.752 1.826.752s2.882 1.125 4.174 2.5c1.292 1.375 3.17 2.5 4.174 2.5 1.004 0 1.826.45 1.826 1s.873 1 1.941 1 2.212.438 2.542.973c.331.536 2.158 1.661 4.059 2.5l6.916 3.054c1.901.839 3.728 1.964 4.059 2.5.33.535 1.31.973 2.177.973s2.619 1.125 3.894 2.5c1.274 1.375 2.986 2.5 3.805 2.5s1.767.45 2.107 1c.34.55 1.454 1 2.476 1 1.021 0 2.007.337 2.191.75.407.916 10.938 6.281 12.333 6.283.55.001 2.06 1.119 3.355 2.484 1.295 1.366 2.928 2.483 3.628 2.483.699 0 1.832.675 2.517 1.5.685.825 2.09 1.5 3.122 1.5 1.033 0 1.878.45 1.878 1s.606 1 1.346 1c1.72 0 7.433 2.834 8.193 4.063.319.515 1.383.937 2.365.937.982 0 2.62.921 3.638 2.047 1.627 1.797 3.783 3.018 9.458 5.357.825.34 2.85 1.48 4.5 2.534 1.65 1.054 3.788 1.949 4.75 1.989.962.04 1.75.523 1.75 1.073 0 .55.83 1 1.845 1 1.015 0 2.702.952 3.75 2.115 1.048 1.163 2.805 2.512 3.905 2.997 1.1.486 2.675 1.297 3.5 1.802.825.506 3.168 1.644 5.208 2.53 2.039.885 3.978 2.047 4.309 2.583.33.535 1.474.973 2.542.973 1.068 0 1.941.45 1.941 1s.606 1 1.346 1c1.945 0 6.826 2.58 9.376 4.955 1.207 1.125 2.862 2.045 3.677 2.045.816 0 1.754.438 2.084.973.331.536 2.158 1.661 4.059 2.5l6.916 3.054c1.901.839 3.728 1.964 4.059 2.5.33.535 1.271.973 2.09.973s2.531 1.125 3.805 2.5c1.275 1.375 2.941 2.533 3.703 2.573.762.04 2.735.935 4.385 1.989s3.675 2.194 4.5 2.535c6.433 2.654 12.766 6.053 14.117 7.578.89 1.004 2.297 1.825 3.128 1.825.83 0 2.07.675 2.755 1.5s2.09 1.5 3.122 1.5c1.033 0 1.878.45 1.878 1s.873 1 1.941 1 2.201.422 2.52.937c.726 1.174 6.441 4.063 8.038 4.063.655 0 2.009.903 3.008 2.007 2.036 2.25 7.078 4.993 9.178 4.993.758 0 1.637.675 1.953 1.5.317.825 1.401 1.5 2.41 1.5 1.009 0 2.112.45 2.452 1 .34.55 1.454 1 2.476 1 1.021 0 2.007.337 2.191.75.183.412 2.395 1.757 4.916 2.987 2.521 1.23 5.403 3.142 6.405 4.25 1.002 1.107 2.358 2.013 3.013 2.013 1.597 0 7.312 2.889 8.038 4.063.319.515 1.452.937 2.52.937s1.941.45 1.941 1 .681 1 1.514 1c1.952 0 5.243 1.855 8.868 5 1.981 1.719 3.022 2.109 3.333 1.25.248-.687 1.259-1.25 2.246-1.25.987 0 2.354-.675 3.039-1.5s1.795-1.5 2.467-1.5c.673 0 2.038-.9 3.033-2 .995-1.1 2.614-2 3.596-2 .982 0 2.046-.422 2.365-.937.676-1.094 6.396-4.063 7.828-4.063.54 0 2.024-1.125 3.299-2.5 1.274-1.375 2.986-2.5 3.805-2.5s1.76-.438 2.09-.973c.331-.536 2.045-1.607 3.809-2.382 1.765-.774 4.807-2.115 6.761-2.98 1.954-.864 4.386-2.493 5.405-3.618 1.018-1.126 2.682-2.047 3.697-2.047 1.015 0 1.845-.363 1.845-.808 0-.822 6.912-4.192 8.599-4.192.509 0 1.771-1.125 2.804-2.5 1.032-1.375 2.42-2.5 3.083-2.5 1.609 0 7.324-2.884 8.053-4.063.319-.515 1.452-.937 2.52-.937s1.941-.45 1.941-1 .822-1 1.826-1 2.882-1.125 4.174-2.5c1.292-1.375 3.17-2.5 4.174-2.5 1.004 0 1.826-.45 1.826-1s.873-1 1.941-1 2.201-.422 2.52-.937c.726-1.174 6.441-4.063 8.038-4.063.655 0 2.011-.906 3.013-2.013 1.002-1.108 3.884-3.02 6.405-4.25 2.521-1.23 4.733-2.575 4.916-2.987.184-.412 1.118-.75 2.076-.75s2.799-1.125 4.091-2.5c1.292-1.375 3.17-2.5 4.174-2.5 1.004 0 1.826-.45 1.826-1s.873-1 1.941-1 2.201-.422 2.52-.937c.726-1.174 6.441-4.063 8.038-4.063.655 0 2.025-.921 3.043-2.047 1.019-1.125 3.451-2.738 5.405-3.583 1.954-.845 4.228-1.95 5.053-2.456.825-.505 2.418-1.321 3.541-1.812 1.123-.492 2.647-1.624 3.388-2.516.741-.893 2.86-2.29 4.709-3.104l6.82-3.009c1.901-.839 3.728-1.964 4.059-2.5.33-.535 1.405-.973 2.387-.973s2.604-.903 3.603-2.007c2.023-2.236 7.074-4.993 9.147-4.993.74 0 1.346-.441 1.346-.981 0-.539 1.107-1.259 2.459-1.598 1.352-.34 3.021-1.295 3.709-2.123.687-.829 2.168-1.908 3.291-2.4 1.123-.491 2.716-1.307 3.541-1.812.825-.506 3.168-1.644 5.208-2.53 2.039-.885 3.978-2.047 4.309-2.583.33-.535 1.268-.973 2.084-.973.815 0 2.47-.92 3.677-2.045 2.55-2.375 7.431-4.955 9.376-4.955.74 0 1.346-.45 1.346-1s.845-1 1.878-1c1.032 0 2.437-.675 3.122-1.5s1.786-1.5 2.448-1.5c.662 0 2.26-1.125 3.552-2.5 1.292-1.375 2.931-2.5 3.644-2.5.712 0 2.898-.9 4.856-2 1.958-1.1 4.159-2 4.89-2 .732 0 2.175-1.125 3.207-2.5 1.033-1.375 2.616-2.5 3.518-2.5.902 0 2.2-.675 2.885-1.5.685-.825 2.09-1.5 3.122-1.5 1.033 0 1.878-.45 1.878-1s.845-1 1.878-1c1.032 0 2.437-.675 3.122-1.5s1.795-1.5 2.467-1.5c.673 0 2.038-.9 3.033-2 .995-1.1 2.614-2 3.596-2 .982 0 2.046-.422 2.365-.937.676-1.094 6.396-4.063 7.828-4.063.54 0 2.024-1.125 3.299-2.5 1.274-1.375 2.986-2.5 3.805-2.5s1.76-.438 2.09-.973c.331-.536 2.045-1.607 3.809-2.382 1.765-.774 4.807-2.115 6.761-2.98 1.954-.864 4.386-2.493 5.405-3.618 1.018-1.126 2.656-2.047 3.638-2.047.982 0 2.046-.422 2.365-.937.676-1.094 6.396-4.063 7.828-4.063.54 0 2.024-1.125 3.299-2.5 1.274-1.375 2.9-2.533 3.614-2.573.714-.04 2.648-.935 4.298-1.989s3.675-2.194 4.5-2.534c5.675-2.339 7.831-3.56 9.458-5.357 1.018-1.126 2.682-2.047 3.697-2.047 1.015 0 1.845-.45 1.845-1s.845-1 1.878-1c1.032 0 2.437-.675 3.122-1.5s2.09-1.5 3.122-1.5c1.033 0 1.878-.45 1.878-1s.83-1 1.845-1c1.015 0 2.686-.929 3.714-2.065s5.075-3.608 8.993-5.492c3.917-1.884 7.941-4.33 8.94-5.435 1-1.104 2.648-2.008 3.663-2.008 1.015 0 1.845-.45 1.845-1s.873-1 1.941-1 2.201-.422 2.52-.937c.726-1.174 6.441-4.063 8.038-4.063.655 0 2.025-.921 3.043-2.047 1.019-1.125 3.451-2.738 5.405-3.583 1.954-.845 4.228-1.95 5.053-2.456.825-.505 2.4-1.316 3.5-1.802 1.1-.485 2.857-1.834 3.905-2.997 1.048-1.163 2.735-2.115 3.75-2.115 1.015 0 1.845-.45 1.845-1s.606-1 1.346-1c1.72 0 7.433-2.834 8.193-4.063.319-.515 1.374-.937 2.346-.937.971 0 2.823-1.125 4.115-2.5 1.292-1.375 2.808-2.5 3.37-2.5.561 0 2.283-1.209 3.825-2.687l2.805-2.687v-29.113c0-19.578.355-29.468 1.084-30.197.736-.736 1.044-10.714.961-31.089-.106-25.789.093-30.222 1.416-31.545 1.318-1.318 1.539-5.918 1.539-32.052 0-19.262.369-30.74 1-31.13.632-.39 1-12.021 1-31.59 0-26.609.211-31.054 1.5-31.548 1.289-.495 1.5-4.987 1.5-31.969 0-20.262.355-31.393 1-31.393.644 0 1-10.631 1-29.893 0-25.649.213-29.975 1.5-30.469 1.289-.494 1.5-4.939 1.5-31.548 0-19.569.368-31.2 1-31.59.632-.39 1-11.983 1-31.476 0-21.233.337-30.97 1.082-31.218.747-.249 1.045-9.805.963-30.93-.102-26.375.093-30.745 1.418-31.846 1.322-1.096 1.537-5.598 1.537-32.152 0-19.919.355-30.878 1-30.878.633 0 1-7.333 1-20v-20h-6.378c-4.449 0-6.754-.454-7.622-1.5-.934-1.126-3.445-1.5-10.063-1.5-4.851 0-9.097-.45-9.437-1-.34-.55-4.586-1-9.437-1-6.618 0-9.129-.374-10.063-1.5-.934-1.126-3.445-1.5-10.063-1.5-4.851 0-9.097-.45-9.437-1-.34-.55-4.615-1-9.5-1s-9.16-.45-9.5-1c-.34-.55-4.384-1-8.988-1-6.106 0-8.775-.406-9.869-1.5-1.113-1.113-3.841-1.5-10.572-1.5-5.381 0-9.071-.407-9.071-1 0-.597-3.844-1-9.531-1-7.55 0-9.651-.312-10.107-1.5-.455-1.186-2.542-1.5-9.969-1.5-5.595 0-9.393-.404-9.393-1s-3.798-1-9.393-1c-7.427 0-9.514-.314-9.969-1.5-.452-1.179-2.495-1.5-9.548-1.5-4.934 0-9.25-.45-9.59-1-.34-.55-4.615-1-9.5-1s-9.16-.45-9.5-1c-.34-.55-4.586-1-9.437-1-6.618 0-9.129-.374-10.063-1.5-.934-1.126-3.445-1.5-10.063-1.5-4.851 0-9.097-.45-9.437-1-.34-.55-4.586-1-9.437-1-6.618 0-9.129-.374-10.063-1.5-.934-1.126-3.445-1.5-10.063-1.5-4.851 0-9.097-.45-9.437-1-.34-.55-4.615-1-9.5-1s-9.16-.45-9.5-1c-.34-.55-4.586-1-9.437-1-6.618 0-9.129-.374-10.063-1.5-.934-1.126-3.445-1.5-10.063-1.5-4.851 0-9.097-.45-9.437-1-.34-.55-4.586-1-9.437-1-6.618 0-9.129-.374-10.063-1.5-.914-1.101-3.34-1.5-9.122-1.5-4.585 0-7.878-.418-7.878-1 0-.592-3.626-1-8.878-1-6.671 0-9.187-.373-10.122-1.5-.945-1.138-3.507-1.5-10.622-1.5-5.585 0-9.378-.404-9.378-1 0-.592-3.647-1-8.941-1-4.918 0-9.219-.45-9.559-1-.34-.55-4.586-1-9.437-1-6.618 0-9.129-.374-10.063-1.5-.934-1.126-3.445-1.5-10.063-1.5-4.851 0-9.097-.45-9.437-1-.34-.55-4.615-1-9.5-1s-9.16.45-9.5 1M965 349.711c-1.375.252-2.928.87-3.45 1.374-.522.503-2.441.915-4.264.915-1.822 0-4.095.397-5.05.882-2.364 1.202-9.92 3.191-14.492 3.816-2.066.282-4.005.916-4.309 1.408-.304.492-2.011.894-3.794.894s-3.759.518-4.392 1.151c-1.056 1.056-5.049 2.043-14.249 3.523-1.925.31-3.998.961-4.607 1.448-1.175.94-8.417 2.704-14.649 3.568-2.066.287-4.005.924-4.309 1.416-.304.492-1.989.91-3.744.929-1.755.02-4.316.679-5.691 1.465s-3.936 1.445-5.691 1.465c-1.755.019-3.469.485-3.809 1.035-.34.55-2.279 1.014-4.309 1.032-2.03.017-4.565.692-5.632 1.5-1.068.807-3.404 1.468-5.191 1.468-1.788 0-3.528.45-3.868 1-.34.55-2.301 1-4.359 1s-4.168.41-4.691.912c-.522.501-2.975 1.302-5.45 1.78l-4.5.87-.684 58.414c-.377 32.127-.993 59.339-1.37 60.469-.377 1.13-.969 39.47-1.315 85.2-.606 79.88-.706 83.229-2.536 85.25-1.048 1.158-2.33 2.105-2.849 2.105-.519 0-2.362.622-4.095 1.383-1.733.76-4.726 1.933-6.651 2.607-3.409 1.192-8.728 3.434-12.236 5.157-.955.469-2.299.853-2.986.853-.687 0-3.506 1.06-6.264 2.356-4.577 2.15-9.434 4.019-18.264 7.026-1.788.609-3.25 1.447-3.25 1.863 0 .415-.864.755-1.919.755-1.055 0-3.193.633-4.75 1.407-2.965 1.475-4.766 2.227-12.577 5.254-2.611 1.011-4.746 2.289-4.746 2.839 0 .55 2.957 4.375 6.571 8.5 3.615 4.125 7.06 8.513 7.657 9.75.597 1.237 1.426 2.25 1.843 2.25.417 0 3.543 3.461 6.947 7.692 3.403 4.231 8.144 9.968 10.534 12.75 2.391 2.782 11.623 13.833 20.516 24.558 8.893 10.725 16.677 19.95 17.297 20.5.62.55 2.453 2.8 4.074 5s3.216 4.225 3.544 4.5c.753.632 14.472 16.867 18.636 22.055 1.72 2.143 5.32 6.428 8 9.523 2.68 3.095 5.294 6.369 5.808 7.275.515.906 2.616 3.447 4.67 5.647s5.233 5.865 7.065 8.145c8.798 10.951 15.66 19.22 18.836 22.703 1.922 2.106 3.854 4.465 4.294 5.241 1.166 2.059 2.7 1.724 2.7-.589 0-1.1.45-2 1-2s1-.845 1-1.878c0-1.032.675-2.437 1.5-3.122s1.5-2.09 1.5-3.122c0-1.033.45-1.878 1-1.878s1-.845 1-1.878c0-1.032.675-2.437 1.5-3.122s1.5-1.781 1.5-2.435c0-1.17 3.165-8.325 7.037-15.91 1.08-2.114 1.963-4.421 1.963-5.127 0-.706.675-1.843 1.5-2.528s1.5-2.09 1.5-3.122c0-1.033.45-1.878 1-1.878s1-.845 1-1.878c0-1.032.675-2.437 1.5-3.122s1.5-2.09 1.5-3.122c0-1.033.45-1.878 1-1.878s1-1.125 1-2.5.45-2.5 1-2.5 1-.845 1-1.878c0-1.032.675-2.437 1.5-3.122s1.5-1.711 1.5-2.281c0-.929 2.274-5.894 9.646-21.061 1.295-2.664 2.354-5.476 2.354-6.25 0-.775.45-1.408 1-1.408s1-.845 1-1.878c0-1.032.675-2.437 1.5-3.122s1.5-2.09 1.5-3.122c0-1.033.45-1.878 1-1.878s1-.845 1-1.878c0-1.032.675-2.437 1.5-3.122s1.5-1.871 1.5-2.636c0-.765.408-2.173.908-3.128 3.581-6.853 8.092-16.758 8.092-17.771 0-.671.675-1.78 1.5-2.465.825-.685 1.5-2.09 1.5-3.122 0-1.033.45-1.878 1-1.878s1-1.077 1-2.393c0-1.316.675-2.652 1.5-2.969.825-.316 1.5-1.489 1.5-2.607 0-1.117.45-2.031 1-2.031s1-.606 1-1.346c0-1.72 2.834-7.433 4.063-8.193.515-.319.937-1.204.937-1.967 0-1.215 1.444-4.551 8.87-20.494.896-1.925 1.967-3.65 2.38-3.833.413-.184.75-1.421.75-2.75 0-1.33.45-2.417 1-2.417s1-.845 1-1.878c0-1.032.675-2.437 1.5-3.122s1.5-2.09 1.5-3.122c0-1.033.45-1.878 1-1.878s1-.873 1-1.941.438-2.212.973-2.542c.866-.535 2.593-3.969 5.04-10.017.445-1.1 2.649-5.859 4.898-10.575 2.249-4.716 4.089-9.104 4.089-9.75 0-.646.45-1.175 1-1.175s1-.845 1-1.878c0-1.032.675-2.437 1.5-3.122s1.5-2.09 1.5-3.122c0-1.033.45-1.878 1-1.878s1-.681 1-1.514c0-1.383.876-3.457 3.162-7.486a27.392 27.392 0 001.43-3c.319-.825 2.118-4.65 3.998-8.5 1.88-3.85 3.417-7.507 3.414-8.128-.002-.62.671-1.687 1.496-2.372.825-.685 1.5-2.052 1.5-3.039 0-.987.563-2.021 1.25-2.299.779-.314.621-.534-.419-.583-.918-.043-2.943.554-4.5 1.328-1.557.775-3.956 1.847-5.331 2.384-1.375.536-5.65 2.197-9.5 3.689-10.645 4.128-11.778 4.595-14.831 6.113-1.557.774-3.668 1.407-4.691 1.407-1.023 0-2.138.45-2.478 1-.34.55-1.661 1-2.937 1-1.275 0-2.878.675-3.563 1.5s-2 1.5-2.922 1.5c-.923 0-2.105.372-2.628.826-1.605 1.396-9.007 3.407-11.034 2.998-1.369-.276-1.836-1.091-1.635-2.855.155-1.358.686-23.169 1.18-48.469.494-25.3 1.37-49.15 1.948-53 .585-3.896 1.069-23.628 1.091-44.5.022-20.625.467-40.425.988-44 .521-3.575.987-22.025 1.035-41 .093-37.017.348-35.274-5.023-34.289m-692.083 2.702c-.229.227-.075 6.19.342 13.25.418 7.06 1.155 27.687 1.638 45.837 2.659 99.936 3.174 116.131 3.733 117.5.337.825 1.001 18.375 1.476 39 .474 20.625 1.151 41.438 1.504 46.25l.641 8.75h-2.639c-2.635 0-3.178-.191-9.443-3.331-1.832-.918-4.168-1.669-5.191-1.669-1.023 0-2.138-.45-2.478-1-.34-.55-1.422-1-2.405-1-1.632 0-5.917-1.686-10.331-4.064-.955-.515-2.424-.936-3.264-.936-1.536 0-2.359-.339-8.154-3.357-1.735-.904-3.879-1.643-4.764-1.643-.885 0-2.391-.395-3.346-.878-4.201-2.124-9.421-4.122-10.77-4.122-.806 0-1.466-.45-1.466-1s-.9-1-2-1c-2.372 0-2.584 1.27-.5 3 .825.685 1.5 2.09 1.5 3.122 0 1.033.45 1.878 1 1.878s1 .524 1 1.164c0 1.866 3.307 8.836 4.192 8.836.445 0 .841.788.881 1.75.04.962.935 3.1 1.989 4.75s2.179 3.675 2.5 4.5c.321.825 1.001 2.281 1.511 3.236.51.955.927 2.418.927 3.25 0 .833.363 1.514.808 1.514.444 0 1.623 1.913 2.62 4.25 2.55 5.982 13.753 29.477 16.806 35.25a163.15 163.15 0 013.204 6.5c.89 1.925 1.985 4.175 2.434 5 2.432 4.465 3.128 6.107 3.128 7.379 0 .774.675 1.666 1.5 1.983.825.316 1.5 1.27 1.5 2.12 0 .85.412 2.327.916 3.282.504.955 1.641 3.404 2.527 5.444.886 2.039 2.048 3.978 2.584 4.309.535.33.973 1.474.973 2.542 0 1.068.45 1.941 1 1.941s1 .845 1 1.878c0 1.032.675 2.437 1.5 3.122s1.533 1.977 1.573 2.872c.04.896.92 2.978 1.956 4.628 1.759 2.805 2.589 4.432 6.499 12.75.84 1.788 1.936 3.925 2.435 4.75.499.825 3.462 6.9 6.584 13.5 3.122 6.6 8.101 16.971 11.064 23.047 2.964 6.077 5.389 11.589 5.389 12.25 0 .662.45 1.203 1 1.203s1 .873 1 1.941.422 2.201.937 2.52c1.229.76 4.063 6.473 4.063 8.193 0 .74.45 1.346 1 1.346s1 .845 1 1.878c0 1.032.675 2.437 1.5 3.122s1.5 2.09 1.5 3.122c0 1.033.45 1.878 1 1.878s1 .845 1 1.878c0 1.032.675 2.437 1.5 3.122s1.5 2.09 1.5 3.122c0 1.033.45 1.878 1 1.878s1 .613 1 1.361c0 1.146 8.312 18.725 13.778 29.139 2.144 4.085 2.339 4.484 8.314 17 2.888 6.05 5.417 11.206 5.62 11.457.203.251 1.509-.874 2.902-2.5a341.395 341.395 0 015.292-5.996c1.517-1.671 3.171-3.77 3.676-4.664.505-.894 2.718-3.578 4.918-5.963 2.2-2.386 5.784-6.587 7.965-9.336 2.181-2.749 4.945-6.123 6.142-7.498 5.845-6.715 9.61-11.201 15.948-19 9.625-11.845 16.081-19.576 30.479-36.5 8.009-9.414 26.309-31.409 32.381-38.92 2.704-3.344 5.194-6.305 5.534-6.58.341-.275 2.39-2.75 4.555-5.5 2.164-2.75 5.524-6.828 7.466-9.062a704.364 704.364 0 007.646-9 1282.04 1282.04 0 019.256-10.938c5.322-6.211 6.033-8.74 2.617-9.306-2.044-.339-7.645-2.554-10.725-4.242-.955-.524-2.424-.952-3.264-.952-1.539 0-2.257-.287-8.331-3.331-1.832-.918-4.168-1.669-5.191-1.669-1.023 0-2.138-.45-2.478-1-.34-.55-1.254-1-2.032-1-.777 0-3.788-1.057-6.691-2.348-2.902-1.291-7.077-2.899-9.277-3.572-2.2-.673-5.35-1.819-7-2.547-3.249-1.432-5.562-2.36-12.5-5.016-2.475-.947-5.281-2.126-6.236-2.62-.955-.493-2.402-.897-3.215-.897-4.41 0-4.362 1.248-7.523-196-1.073-67.011-2.064-94.905-3.399-95.731-.58-.358-2.87-.977-5.09-1.376-2.221-.399-6.737-1.467-10.037-2.373-5.739-1.576-7.949-2.098-18.817-4.444-2.649-.573-5.333-1.359-5.963-1.749-.631-.39-3.076-1.073-5.433-1.518l-8.574-1.618c-2.357-.445-4.928-1.206-5.713-1.691-.785-.485-3.356-1.246-5.713-1.691-2.358-.445-6.2-1.233-8.537-1.751-2.337-.518-6.481-1.422-9.209-2.009-2.727-.587-5.405-1.513-5.95-2.058-.545-.545-2.674-.991-4.732-.991-2.058 0-4.019-.45-4.359-1-.34-.55-1.986-1-3.658-1s-4.458-.637-6.191-1.416c-3.126-1.405-6.451-2.172-14.151-3.265-2.2-.313-4.888-1.187-5.973-1.944-1.084-.756-3.645-1.375-5.69-1.375-2.046 0-3.997-.45-4.337-1-.62-1.003-2.803-1.361-3.583-.587m675.155 28.675c-2.436.478-4.888 1.328-5.45 1.89-.562.562-2.48 1.022-4.263 1.022s-3.519.45-3.859 1c-.34.55-2.111 1-3.937 1-1.825 0-3.878.675-4.563 1.5-.709.854-2.889 1.5-5.063 1.5-2.101 0-4.097.45-4.437 1-.34.55-2.076 1-3.859 1s-3.745.504-4.361 1.12c-1.139 1.139-6.766 2.622-13.536 3.567-2.066.288-4.005.927-4.309 1.419-.304.492-1.764.91-3.244.929-1.48.02-3.816.679-5.191 1.465s-3.936 1.445-5.691 1.465c-1.755.019-3.469.485-3.809 1.035-.34.55-2.054 1.014-3.809 1.032-1.755.017-4.065.692-5.132 1.5-1.068.807-3.34 1.468-5.05 1.468s-3.536.415-4.059.923c-.522.508-2.3 1.07-3.95 1.25l-3 .327-.619 60c-.341 33-.928 65.4-1.306 72-.378 6.6-1.043 43.288-1.477 81.529-.818 71.899-.955 73.971-4.911 73.971-.958 0-2.63.577-3.714 1.283-1.085.706-3.773 1.868-5.973 2.583-2.2.715-5.575 1.968-7.5 2.785a562.431 562.431 0 01-10.75 4.454c-1.513.608-4.1 1.67-5.75 2.36a507.81 507.81 0 01-5.5 2.259c-6.257 2.513-12 5.486-12 6.211 0 .895 3.621 5.782 5.975 8.065.851.825 2.877 3.3 4.504 5.5 1.626 2.2 6.346 7.985 10.488 12.856 4.143 4.871 8.411 10.046 9.484 11.5 1.073 1.454 4.448 5.622 7.5 9.261 3.052 3.639 6.347 7.594 7.323 8.789.975 1.195 4.575 5.552 8 9.683 3.424 4.131 7.487 9.176 9.028 11.211 1.541 2.035 4.684 5.915 6.986 8.622a523.25 523.25 0 017.198 8.665c7.519 9.337 15.084 18.557 16.484 20.087.841.921 3.555 4.398 6.03 7.727 2.475 3.329 5.122 5.951 5.882 5.826 1.52-.25 3.941-4.602 10.141-18.227 2.253-4.95 4.519-9.781 5.036-10.736.518-.955.941-2.37.941-3.143 0-.774.675-1.666 1.5-1.983.825-.316 1.5-1.176 1.5-1.91 0-1.721 5.127-12.123 6.19-12.561.446-.184.81-.977.81-1.764s.4-2.212.889-3.167c.489-.955 1.727-3.536 2.75-5.736 1.024-2.2 2.198-4.15 2.611-4.333.413-.184.75-.852.75-1.486 0-1.069 1.593-4.618 7.64-17.023 1.298-2.664 2.36-5.476 2.36-6.25 0-.775.45-1.408 1-1.408s1-.914 1-2.031c0-1.118.675-2.291 1.5-2.607.825-.317 1.5-1.209 1.5-1.983 0-1.272.696-2.914 3.128-7.379.449-.825 1.504-2.962 2.344-4.75l3.056-6.5c.84-1.788 1.927-3.925 2.416-4.75.489-.825 1.558-3.075 2.376-5 3.543-8.345 5.903-13.603 6.733-15 .982-1.652 3.121-6.129 5.474-11.458.839-1.901 1.964-3.728 2.5-4.059.535-.33.973-1.474.973-2.542 0-1.068.45-1.941 1-1.941s1-.845 1-1.878c0-1.032.675-2.437 1.5-3.122s1.5-1.822 1.5-2.528.879-3.013 1.953-5.127C982.125 663.162 987 652.466 987 651.298c0-.714.45-1.298 1-1.298s1-.845 1-1.878c0-1.032.675-2.437 1.5-3.122s1.5-2.09 1.5-3.122c0-1.033.45-1.878 1-1.878s1-1.575 1-3.5c0-2.757-.398-3.5-1.878-3.5-1.032 0-2.437.675-3.122 1.5s-2.063 1.5-3.063 1.5c-1.001 0-2.097.45-2.437 1-.34.55-1.424 1-2.41 1-.986 0-3.908 1.125-6.494 2.5s-5.329 2.5-6.096 2.5c-.767 0-3.51 1.125-6.096 2.5-2.586 1.375-5.535 2.5-6.553 2.5-1.018 0-1.851.399-1.851.887 0 .487-1.35 1.084-3 1.326l-3 .441.02-23.577c.011-12.967.481-26.502 1.045-30.077.964-6.115 1.963-44.282 3.953-151 .466-25.025 1.156-50.113 1.531-55.75.758-11.362 1.243-10.677-6.477-9.162M290.361 406.25c1.76 83.753 2.418 105.577 3.219 106.83 1.447 2.263 4.065 141.92 2.66 141.92-.476 0-3.198-1.125-6.048-2.5s-5.641-2.5-6.201-2.5c-.56 0-1.8-.414-2.755-.92-.955-.507-4.886-2.134-8.736-3.617-3.85-1.483-7.9-3.064-9-3.512-7.044-2.872-10.206-4.227-11.704-5.015-1.052-.553-1.941-.511-2.324.109-.58.939 3.02 8.485 33.647 70.52C289.654 720.8 295 732.163 295 732.815c0 .652.45 1.185 1 1.185s1 .845 1 1.878c0 1.032.675 2.437 1.5 3.122s1.5 2.09 1.5 3.122c0 1.033.45 1.878 1 1.878s1 .873 1 1.941.438 2.212.973 2.542c.536.331 1.661 2.158 2.5 4.059l3.054 6.916c.839 1.901 1.964 3.728 2.5 4.059.535.33.973 1.474.973 2.542 0 1.068.45 1.941 1 1.941s1 .845 1 1.878c0 1.032.675 2.437 1.5 3.122s1.5 2.09 1.5 3.122c0 1.033.45 1.878 1 1.878s1 .845 1 1.878c0 1.032.675 2.437 1.5 3.122s1.5 1.722 1.5 2.305c0 .583 5.423 12.116 12.051 25.628 17 34.656 19.454 39.402 20.567 39.773.86.287 11.903-12.516 18.007-20.874 1.168-1.6 3.423-4.355 5.011-6.121 1.587-1.766 4.681-5.457 6.875-8.201 2.194-2.745 7.364-9.043 11.489-13.995 4.125-4.953 8.027-9.682 8.672-10.51.644-.828 3.584-4.43 6.531-8.005 2.948-3.575 8.934-11 13.301-16.5 4.368-5.5 8.548-10.627 9.29-11.393.742-.766 3.904-4.527 7.027-8.359 3.124-3.831 7.811-9.505 10.417-12.607 9.099-10.833 9.984-12.119 9.396-13.653-.324-.844-1.386-1.785-2.361-2.092-1.494-.471-8.373-3.085-16.773-6.374-1.1-.43-4.025-1.565-6.5-2.522-7.593-2.935-8.371-3.243-12.5-4.946-2.2-.908-4.781-2.079-5.736-2.602-.955-.524-2.424-.952-3.264-.952-.84 0-2.309-.417-3.264-.927-.955-.51-2.461-1.147-3.348-1.416-2.207-.669-2.842-13.361-3.91-78.157-2.094-127.038-2.954-165.651-3.897-175-.556-5.5-1.026-15.464-1.045-22.143-.039-13.038-.171-13.357-5.559-13.357-1.297 0-2.608-.402-2.912-.894-.304-.492-2.243-1.131-4.309-1.419-6.001-.837-11.583-2.244-13.94-3.512-1.202-.646-3.538-1.175-5.191-1.175-1.654 0-3.285-.45-3.625-1-.34-.55-2.115-1-3.945-1-1.829 0-4.615-.672-6.191-1.494-1.575-.821-4.075-1.496-5.555-1.5-1.48-.003-2.969-.456-3.309-1.006-.34-.55-2.301-1-4.359-1s-4.169-.412-4.691-.916c-.523-.504-2.742-1.193-4.931-1.531-2.19-.339-4.418-1.052-4.95-1.584-.533-.533-2.427-.969-4.21-.969s-3.519-.45-3.859-1c-.34-.55-2.279-1.014-4.309-1.032-2.03-.017-4.565-.692-5.632-1.5-1.068-.807-3.404-1.468-5.191-1.468-1.788 0-3.528-.45-3.868-1-.34-.55-2.19-1-4.112-1h-3.494l.467 22.25" fill="undefined" fill-rule="evenodd"/></svg>